Coordinates
version=1
nRows=21
nColumns=27
inDegrees=yes

Units are S.I. units (second, meters, Newtons, ...)
If the header above contains a line with 'inDegrees', this indicates whether rotational values are in degrees (yes) or radians (no).

endheader
time	pelvis_rotation	pelvis_tilt	pelvis_list	pelvis_tx	pelvis_ty	pelvis_tz	hip_flexion_r	hip_adduction_r	hip_rotation_r	knee_angle_r	knee_rotation_r	knee_adduction_r	knee_angle_r_beta	ankle_angle_r	subtalar_angle_r	mtp_angle_r	hip_flexion_l	hip_adduction_l	hip_rotation_l	knee_angle_l	knee_rotation_l	knee_adduction_l	knee_angle_l_beta	ankle_angle_l	subtalar_angle_l	mtp_angle_l
      3.25500000	     -0.74075218	    -21.71170547	     -0.44033978	      0.09298532	      0.81736385	     -1.16801863	     43.61623316	    -27.41369103	    -22.13160545	     34.92077208	      0.00000000	      3.68718759	      0.60948245	      1.54694321	      0.00000000	      0.00000000	     45.13717888	    -22.70095911	     -1.87114114	     31.33807413	      0.00000000	      3.26665873	      0.54695257	      2.17608167	      0.00000000	      0.00000000
      3.26000000	     -1.29881818	    -22.11661000	     -0.04131089	      0.09120338	      0.81631305	     -1.16823900	     45.11840232	    -27.56151447	    -20.55768020	     35.65339234	      0.00000000	      3.38364063	      0.62226909	      1.62486226	      0.00000000	      0.00000000	     45.51918551	    -22.70794115	     -2.80411064	     31.71276674	      0.00000000	      2.92133778	      0.55349219	      2.26518114	      0.00000000	      0.00000000
      3.26500000	     -1.46489956	    -21.96333409	      0.21605609	      0.09110172	      0.81562629	     -1.16829413	     45.42067660	    -27.86999123	    -20.35731800	     36.10886946	      0.00000000	      3.79137030	      0.63021866	      1.74975078	      0.00000000	      0.00000000	     45.32543967	    -22.70339835	     -3.50044090	     31.86922338	      0.00000000	      2.53357281	      0.55622288	      2.26800607	      0.00000000	      0.00000000
      3.27000000	     -0.72225662	    -22.10535334	     -0.05778264	      0.09065405	      0.81498012	     -1.16803376	     45.13923394	    -28.15281812	    -21.76146435	     36.32121435	      0.00000000	      4.31430864	      0.63392478	      1.85151649	      0.00000000	      0.00000000	     46.24709046	    -22.62133882	     -2.38107752	     32.33063463	      0.00000000	      2.42551006	      0.56427602	      2.33227360	      0.00000000	      0.00000000
      3.27500000	     -0.75479615	    -22.23486856	      0.09572915	      0.08983723	      0.81412194	     -1.16804033	     45.69630085	    -28.40250815	    -21.55142563	     36.80710723	      0.00000000	      4.49627542	      0.64240521	      1.93195801	      0.00000000	      0.00000000	     46.59347780	    -22.60183864	     -2.63576038	     32.66227373	      0.00000000	      2.11671868	      0.57006422	      2.38764566	      0.00000000	      0.00000000
      3.28000000	     -1.64457849	    -22.59017242	      0.62481777	      0.08790434	      0.81289747	     -1.16825621	     47.49718300	    -28.42772029	    -19.29377044	     37.61462469	      0.00000000	      4.02957617	      0.65649905	      1.99916504	      0.00000000	      0.00000000	     46.70205076	    -22.71942387	     -4.14706409	     32.99231816	      0.00000000	      1.68169055	      0.57582458	      2.46934896	      0.00000000	      0.00000000
      3.28500000	     -0.62716646	    -22.34963750	      0.16130358	      0.08855586	      0.81242621	     -1.16782700	     46.32251050	    -28.79583303	    -21.69438239	     37.62377544	      0.00000000	      4.96332993	      0.65665876	      2.14210360	      0.00000000	      0.00000000	     47.31862355	    -22.69095517	     -2.81867773	     33.38139057	      0.00000000	      1.44412815	      0.58261517	      2.54254385	      0.00000000	      0.00000000
      3.29000000	     -0.98905290	    -22.44734417	      0.39953291	      0.08758444	      0.81143665	     -1.16785128	     47.15549300	    -28.92141500	    -20.84683854	     38.17407767	      0.00000000	      4.99858538	      0.66626334	      2.23302167	      0.00000000	      0.00000000	     47.44279716	    -22.79919035	     -3.59353000	     33.69668309	      0.00000000	      1.03588782	      0.58811807	      2.63194996	      0.00000000	      0.00000000
      3.29500000	     -1.15425798	    -22.56031453	      0.44055192	      0.08675797	      0.81049925	     -1.16775612	     47.72244183	    -28.98717759	    -20.50434295	     38.62125374	      0.00000000	      5.12009736	      0.67406804	      2.30067779	      0.00000000	      0.00000000	     47.77294424	    -22.97061135	     -3.98324004	     34.07567499	      0.00000000	      0.63322274	      0.59473272	      2.73123550	      0.00000000	      0.00000000
      3.30000000	     -0.56487657	    -22.46169450	      0.23261769	      0.08663020	      0.80973924	     -1.16751233	     47.27015651	    -29.29606281	    -21.71083586	     38.84200220	      0.00000000	      5.59757594	      0.67792083	      2.42999686	      0.00000000	      0.00000000	     48.30403278	    -22.92943266	     -3.25956761	     34.47718069	      0.00000000	      0.36774945	      0.60174032	      2.81775019	      0.00000000	      0.00000000
      3.30500000	     -0.93903101	    -22.60398580	      0.42739684	      0.08563485	      0.80867947	     -1.16755491	     48.14352845	    -29.37191959	    -20.87202208	     39.39527307	      0.00000000	      5.64846984	      0.68757722	      2.59118768	      0.00000000	      0.00000000	     48.50045565	    -23.08185484	     -3.96044145	     34.83583123	      0.00000000	      0.02253793	      0.60799995	      2.93689295	      0.00000000	      0.00000000
      3.31000000	     -1.02187508	    -22.43023092	      0.60516815	      0.08526914	      0.80777548	     -1.16758595	     48.38006391	    -29.62210600	    -20.64942497	     39.82705236	      0.00000000	      5.85947038	      0.69511320	      2.66044187	      0.00000000	      0.00000000	     48.43295663	    -23.13052292	     -4.49854653	     35.11342542	      0.00000000	     -0.46438111	      0.61284489	      3.00216527	      0.00000000	      0.00000000
      3.31500000	     -1.06265884	    -22.52390186	      0.63881405	      0.08446720	      0.80680518	     -1.16754776	     48.82600714	    -29.74828189	    -20.48062324	     40.23509960	      0.00000000	      6.00969670	      0.70223496	      2.71475625	      0.00000000	      0.00000000	     48.78591379	    -23.22716453	     -4.65682091	     35.46566604	      0.00000000	     -0.78082321	      0.61899264	      3.13007414	      0.00000000	      0.00000000
      3.32000000	     -0.80696809	    -22.49145604	      0.72602279	      0.08392565	      0.80587027	     -1.16758573	     48.93430556	    -30.09959031	    -20.77117589	     40.61705938	      0.00000000	      6.31324958	      0.70890142	      2.83978700	      0.00000000	      0.00000000	     49.11291901	    -23.13020895	     -4.55655971	     35.80988781	      0.00000000	     -1.08505157	      0.62500045	      3.20102981	      0.00000000	      0.00000000
      3.32500000	     -1.05649067	    -22.51149011	      0.70405506	      0.08336050	      0.80493052	     -1.16754915	     49.37372927	    -30.07728143	    -20.42528417	     40.98887505	      0.00000000	      6.42060562	      0.71539083	      2.87765813	      0.00000000	      0.00000000	     49.28332480	    -23.41318366	     -5.02266517	     36.16618210	      0.00000000	     -1.50025911	      0.63121896	      3.36886881	      0.00000000	      0.00000000
      3.33000000	     -0.89438524	    -23.62798555	      0.78498895	      0.08030971	      0.80350503	     -1.16766428	     51.16861125	    -30.19812898	    -19.66512299	     41.63525116	      0.00000000	      5.91043491	      0.72667222	      2.79383767	      0.00000000	      0.00000000	     51.09873490	    -23.21187137	     -4.20785738	     36.79176577	      0.00000000	     -1.17734104	      0.64213745	      3.25837825	      0.00000000	      0.00000000
      3.33500000	     -0.70674177	    -22.49736658	      0.78652354	      0.08242047	      0.80310886	     -1.16766930	     49.66558330	    -30.63986484	    -20.90811215	     41.69878563	      0.00000000	      6.98013898	      0.72778110	      3.03828325	      0.00000000	      0.00000000	     49.91047508	    -23.38002192	     -4.95291605	     36.83825332	      0.00000000	     -2.09178345	      0.64294881	      3.55672585	      0.00000000	      0.00000000
      3.34000000	     -0.89627666	    -22.52860398	      0.89434238	      0.08176567	      0.80214241	     -1.16775852	     50.17183520	    -30.73858980	    -20.48895300	     42.09962649	      0.00000000	      7.10733659	      0.73477710	      3.08598722	      0.00000000	      0.00000000	     50.06563972	    -23.53910064	     -5.46574280	     37.16942783	      0.00000000	     -2.51686705	      0.64872890	      3.67099447	      0.00000000	      0.00000000
      3.34500000	     -0.79992114	    -23.74756291	      1.02083969	      0.07858134	      0.80057986	     -1.16794110	     52.19595981	    -30.84918045	    -19.52047836	     42.80260400	      0.00000000	      6.55644548	      0.74704637	      3.02935479	      0.00000000	      0.00000000	     51.94980986	    -23.34885934	     -4.74850965	     37.80539706	      0.00000000	     -2.18363842	      0.65982865	      3.60058674	      0.00000000	      0.00000000
      3.35000000	     -0.87416931	    -22.53366355	      1.09138762	      0.08068907	      0.80021184	     -1.16801331	     50.81274442	    -31.17673094	    -20.28679113	     42.85816592	      0.00000000	      7.49003479	      0.74801611	      3.24534556	      0.00000000	      0.00000000	     50.49483718	    -23.64058469	     -5.95332010	     37.81850042	      0.00000000	     -3.20566729	      0.66005735	      3.87352605	      0.00000000	      0.00000000
      3.35500000	     -0.97290587	    -22.57559835	      1.35222128	      0.08001865	      0.79915676	     -1.16824305	     51.39749537	    -31.44995958	    -19.82155008	     43.32277803	      0.00000000	      7.65191599	      0.75612512	      3.33622932	      0.00000000	      0.00000000	     50.61383131	    -23.63859467	     -6.47089802	     38.10257116	      0.00000000	     -3.57664648	      0.66501532	      4.00017778	      0.00000000	      0.00000000
